<svg xmlns="http://www.w3.org/2000/svg" width="430" height="430" style="width:100%;height:100%;transform:translate3d(0,0,0);content-visibility:visible" viewBox="0 0 430 430"><defs><clipPath id="e"><path d="M0 0h430v430H0z"/></clipPath><clipPath id="j"><path d="M0 0h430v430H0z"/></clipPath><clipPath id="h"><path d="M0 0h430v430H0z"/></clipPath><clipPath id="f"><path d="M0 0h430v430H0z"/></clipPath><clipPath id="g"><path d="M0 0h430v430H0z"/></clipPath><filter id="a" width="100%" height="100%" x="0%" y="0%" filterUnits="objectBoundingBox"><feComponentTransfer in="SourceGraphic"><feFuncA tableValues="1.0 0.0" type="table"/></feComponentTransfer></filter><filter id="c" width="100%" height="100%" x="0%" y="0%" filterUnits="objectBoundingBox"><feComponentTransfer in="SourceGraphic"><feFuncA tableValues="1.0 0.0" type="table"/></feComponentTransfer></filter><path id="b" style="display:none"/><path id="d" fill="#4BB3FD" d="M160-140v280c0 11.038-8.962 20-20 20h-280c-11.038 0-20-8.962-20-20v-280c0-11.038 8.962-20 20-20h280c11.038 0 20 8.962 20 20" style="display:block" transform="translate(260 215)"/><mask id="k" mask-type="alpha"><g filter="url(#a)"><path fill="#fff" d="M0 0h430v430H0z" opacity="0"/><use xmlns:ns1="http://www.w3.org/1999/xlink" ns1:href="#b"/></g></mask><mask id="i" mask-type="alpha"><g filter="url(#c)"><path fill="#fff" d="M0 0h430v430H0z" opacity="0"/><use xmlns:ns2="http://www.w3.org/1999/xlink" ns2:href="#d"/></g></mask></defs><g clip-path="url(#e)"><g clip-path="url(#f)" style="display:none"><g clip-path="url(#g)" style="display:none"><g style="display:none"><path class="tertiary"/><path class="tertiary" style="mix-blend-mode:multiply"/></g><path fill="none" class="primary" style="display:none"/><g style="display:none"><path class="secondary"/><path class="secondary"/><path class="secondary" style="mix-blend-mode:multiply"/><path class="secondary" style="mix-blend-mode:multiply"/></g><g fill="none" style="display:none"><path class="primary"/><path class="primary"/></g><path fill="none" class="primary" style="display:none"/></g></g><g clip-path="url(#h)" style="display:block"><path fill="#4BB3FD" d="M160-140v280c0 11.038-8.962 20-20 20h-280c-11.038 0-20-8.962-20-20v-280c0-11.038 8.962-20 20-20h280c11.038 0 20 8.962 20 20" class="tertiary" style="display:block" transform="translate(215 215)"/><g mask="url(#i)" opacity=".5" style="mix-blend-mode:multiply;display:block"><path fill="#4BB3FD" d="M375 75v280c0 11.038-8.962 20-20 20H75c-11.038 0-20-8.962-20-20V75c0-11.038 8.962-20 20-20h280c11.038 0 20 8.962 20 20" class="tertiary" opacity="1"/></g><path fill="none" stroke="#121331" stroke-linejoin="round" stroke-width="7" d="M160-140v280c0 11.038-8.962 20-20 20h-280c-11.038 0-20-8.962-20-20v-280c0-11.038 8.962-20 20-20h280c11.038 0 20 8.962 20 20z" class="primary" style="display:block" transform="translate(215 215)"/><g fill="#EBE6EF" style="display:block"><path d="m255 190.205 55.324-37.301c1.993-1.343 4.677.084 4.677 2.487v118.718c0 2.403-2.684 3.83-4.677 2.487L255 239.295zM113 150a3 3 0 0 0-3 3v92c0 16.569 13.431 30 30 30h112a3 3 0 0 0 3-3v-92c0-16.57-13.43-30-30-30z" class="secondary"/><path fill-opacity=".5" d="M-69.5-62.5h17v75c0 16.569 13.431 30 30 30h95v17a3 3 0 0 1-3 3h-112c-16.569 0-30-13.431-30-30v-92a3 3 0 0 1 3-3" class="secondary" style="mix-blend-mode:multiply" transform="translate(182.5 212.5)"/><path fill-opacity=".5" d="M-23-17.004v-28.811l-7 4.72V7.996l55.323 37.301C27.316 46.64 30 45.213 30 42.81V18.731z" class="secondary" style="mix-blend-mode:multiply" transform="translate(285 231.5)"/></g><path fill="none" stroke="#121331" stroke-linejoin="round" stroke-width="7" d="M110 150h115c16.57 0 30 13.43 30 30v95H140c-16.568 0-30-13.431-30-30zm145 40.455L315 150v130l-60-40.455" class="primary" style="display:block"/></g><g clip-path="url(#j)" style="display:none"><path class="tertiary" style="display:none"/><g mask="url(#k)" style="mix-blend-mode:multiply;display:none"><path class="tertiary"/></g><path fill="none" class="primary" style="display:none"/><g style="display:none"><path class="secondary"/><path class="secondary"/><path class="secondary" style="mix-blend-mode:multiply"/><path class="secondary" style="mix-blend-mode:multiply"/></g><g fill="none" style="display:none"><path class="primary"/><path class="primary"/></g><path fill="none" class="primary" style="display:none"/><path fill="none" class="primary" style="display:none"/></g></g></svg>